# Blender 3.3.1
# www.blender.org
o Cube
v 0.906773 0.906773 -1.000000
v 0.906773 1.000000 -0.906773
v 1.000000 0.906773 -0.906773
v 0.906773 -1.000000 -0.906773
v 0.906773 -0.906773 -1.000000
v 1.000000 -0.906773 -0.906773
v 1.000000 0.906773 0.906773
v 0.906773 1.000000 0.906773
v 0.906773 0.906773 1.000000
v 1.000000 -0.906773 0.906773
v 0.906773 -0.906773 1.000000
v 0.906773 -1.000000 0.906773
v -0.906773 0.906773 -1.000000
v -1.000000 0.906773 -0.906773
v -0.906773 1.000000 -0.906773
v -1.000000 -0.906773 -0.906773
v -0.906773 -0.906773 -1.000000
v -0.906773 -1.000000 -0.906773
v -1.000000 0.906773 0.906773
v -0.906773 0.906773 1.000000
v -0.906773 1.000000 0.906773
v -0.906773 -1.000000 0.906773
v -0.906773 -0.906773 1.000000
v -1.000000 -0.906773 0.906773
vn -0.0000 -1.0000 -0.0000
vn -1.0000 -0.0000 -0.0000
vn -0.0000 -0.0000 1.0000
vn -0.0000 1.0000 -0.0000
vn 1.0000 -0.0000 -0.0000
vn 0.5774 0.5774 -0.5774
vn 0.5774 -0.5774 -0.5774
vn 0.5774 0.5774 0.5774
vn 0.5774 -0.5774 0.5774
vn -0.5774 0.5774 -0.5774
vn -0.5774 -0.5774 -0.5774
vn -0.5774 0.5774 0.5774
vn -0.5774 -0.5774 0.5774
vn -0.7071 -0.7071 -0.0000
vn -0.0000 -0.7071 -0.7071
vn 0.7071 -0.0000 -0.7071
vn -0.7071 -0.0000 0.7071
vn 0.7071 -0.0000 0.7071
vn -0.7071 -0.0000 -0.7071
vn -0.0000 0.7071 0.7071
vn 0.7071 0.7071 -0.0000
vn -0.0000 -0.7071 0.7071
vn -0.7071 0.7071 -0.0000
vn -0.0000 0.7071 -0.7071
vn 0.7071 -0.7071 -0.0000
vn -0.0000 -0.0000 -1.0000
vt 0.333333 0.984462
vt 0.015538 0.000000
vt 0.682204 0.317795
vt 0.015538 0.015538
vt 0.317795 0.984462
vt 0.000000 0.015538
vt 0.651129 0.348871
vt 0.651129 0.333333
vt 0.333333 0.682205
vt 0.682204 0.015538
vt 0.317795 0.682204
vt 0.666667 0.348871
vt 0.015538 0.984462
vt 0.333333 0.651129
vt 0.000000 0.317795
vt 0.015538 0.317795
vt 0.317795 0.651129
vt 0.015538 0.333333
vt 0.015538 0.682204
vt 0.333333 0.348871
vt 0.666667 0.651129
vt 0.317795 0.348871
vt 0.651129 0.666667
vt 0.651129 0.651129
vt 0.333333 0.317795
vt 0.317795 0.000000
vt 0.984462 0.317795
vt 0.348871 0.317795
vt 0.333333 0.015538
vt 0.317795 0.015538
vt 0.333333 0.348871
vt 0.348871 0.015538
vt 0.984462 0.015538
vt 0.348871 0.333333
vt 0.333333 0.015538
vt 0.348871 0.348871
vt 0.651129 0.317795
vt 0.333333 0.317795
vt 0.015538 0.651129
vt 0.666667 0.317795
vt 0.317795 0.333333
vt 0.317795 0.317795
vt 0.348871 0.651129
vt 0.666667 0.015538
vt 0.015538 0.348871
vt 0.348871 0.666667
vt 0.333333 0.651129
vt 0.651129 0.015538
s 0
f 4/7/1 22/43/1 18/36/1
f 19/37/2 16/32/2 24/48/2
f 9/17/3 23/45/3 11/22/3
f 15/30/4 8/16/4 2/4/4
f 3/5/5 10/19/5 6/11/5
f 1/2/6 2/4/6 3/6/6
f 4/7/7 5/8/7 6/12/7
f 7/15/8 8/16/8 9/18/8
f 10/21/9 11/23/9 12/24/9
f 13/26/10 14/29/10 15/30/10
f 16/31/11 17/34/11 18/36/11
f 19/38/12 20/41/12 21/42/12
f 22/43/13 23/46/13 24/47/13
f 22/43/14 16/31/14 18/36/14
f 18/36/15 5/8/15 4/7/15
f 6/11/16 1/1/16 3/5/16
f 20/40/17 24/48/17 23/44/17
f 11/22/18 7/14/18 9/17/18
f 17/35/19 14/28/19 13/25/19
f 21/42/20 9/18/20 8/16/20
f 8/16/21 3/6/21 2/4/21
f 12/24/22 23/46/22 22/43/22
f 15/30/23 19/38/23 21/42/23
f 2/4/24 13/26/24 15/30/24
f 4/7/25 10/21/25 12/24/25
f 13/27/26 5/10/26 17/33/26
f 4/7/1 12/24/1 22/43/1
f 19/37/2 14/28/2 16/32/2
f 9/17/3 20/39/3 23/45/3
f 15/30/4 21/42/4 8/16/4
f 3/5/5 7/13/5 10/19/5
f 22/43/14 24/47/14 16/31/14
f 18/36/15 17/34/15 5/8/15
f 6/11/16 5/9/16 1/1/16
f 20/40/17 19/37/17 24/48/17
f 11/22/18 10/20/18 7/14/18
f 17/35/19 16/32/19 14/28/19
f 21/42/20 20/41/20 9/18/20
f 8/16/21 7/15/21 3/6/21
f 12/24/22 11/23/22 23/46/22
f 15/30/23 14/29/23 19/38/23
f 2/4/24 1/2/24 13/26/24
f 4/7/25 6/12/25 10/21/25
f 13/27/26 1/3/26 5/10/26
