# Blender v2.93.11 OBJ File: 'gregolan_jr.blend'
# www.blender.org
o Cube
v -1.000000 0.906773 -0.906773
v -1.000000 -0.906773 -0.906773
v -1.000000 0.906773 0.906773
v 0.906773 1.000000 0.906773
v 1.000000 -0.906773 0.906773
v -0.906773 0.906773 -1.000000
v -0.906773 1.000000 -0.906773
v -0.906773 -0.906773 -1.000000
v -0.906773 -1.000000 -0.906773
v 1.000000 0.906773 -0.906773
v 0.906773 0.906773 -1.000000
v 0.906773 1.000000 -0.906773
v 0.906773 -1.000000 -0.906773
v 0.906773 -0.906773 -1.000000
v 1.000000 -0.906773 -0.906773
v -0.906773 1.000000 0.906773
v -0.906773 0.906773 1.000000
v -0.906773 -1.000000 0.906773
v -0.906773 -0.906773 1.000000
v -1.000000 -0.906773 0.906773
v 0.906773 0.906773 1.000000
v 1.000000 0.906773 0.906773
v 0.906773 -0.906773 1.000000
v 0.906773 -1.000000 0.906773
vt 0.651129 0.348871
vt 0.348871 0.651129
vt 0.348871 0.348871
vt 0.651129 0.317795
vt 0.348871 0.015538
vt 0.651129 0.015538
vt 0.317795 0.651129
vt 0.015538 0.348871
vt 0.317795 0.348871
vt 0.317795 0.015538
vt 0.015538 0.317795
vt 0.015538 0.015538
vt 0.317795 0.984462
vt 0.015538 0.682204
vt 0.317795 0.682204
vt 0.015538 0.000000
vt 0.000000 0.015538
vt 0.651129 0.333333
vt 0.666667 0.348871
vt 0.000000 0.317795
vt 0.015538 0.333333
vt 0.666667 0.651129
vt 0.651129 0.666667
vt 0.651129 0.651129
vt 0.317795 0.000000
vt 0.333333 0.015538
vt 0.333333 0.348871
vt 0.348871 0.333333
vt 0.333333 0.317795
vt 0.317795 0.333333
vt 0.317795 0.317795
vt 0.348871 0.666667
vt 0.333333 0.651129
vt 0.333333 0.984462
vt 0.666667 0.317795
vt 0.666667 0.015538
vt 0.333333 0.651129
vt 0.333333 0.015538
vt 0.348871 0.317795
vt 0.333333 0.317795
vt 0.984462 0.317795
vt 0.682204 0.015538
vt 0.984462 0.015538
vt 0.015538 0.651129
vt 0.015538 0.984462
vt 0.333333 0.682205
vt 0.333333 0.348871
vt 0.682204 0.317795
vn 0.0000 -1.0000 0.0000
vn 0.0000 0.0000 1.0000
vn 1.0000 0.0000 -0.0000
vn 0.0000 1.0000 0.0000
vn -0.0000 0.0000 -1.0000
vn -0.5774 0.5774 -0.5774
vn -0.5774 -0.5774 -0.5774
vn 0.5773 0.5773 -0.5774
vn 0.5773 -0.5773 -0.5774
vn -0.5773 0.5773 0.5774
vn -0.5773 -0.5773 0.5774
vn 0.5774 0.5774 0.5774
vn 0.5774 -0.5774 0.5774
vn 0.0000 -0.7071 0.7071
vn -0.7071 -0.7071 0.0000
vn -0.7071 0.0000 -0.7071
vn 0.7071 0.0000 0.7071
vn 0.7071 0.0000 -0.7071
vn -0.7071 0.0000 0.7071
vn 0.7071 0.7071 0.0000
vn -0.0000 0.7071 -0.7071
vn 0.7071 -0.7071 -0.0000
vn 0.0000 0.7071 0.7071
vn -0.7071 0.7071 0.0000
vn 0.0000 -0.7071 -0.7071
vn -1.0000 0.0000 0.0000
s off
f 9/1/1 24/2/1 18/3/1
f 21/4/2 19/5/2 23/6/2
f 10/7/3 5/8/3 15/9/3
f 16/10/4 12/11/4 7/12/4
f 6/13/5 14/14/5 8/15/5
f 1/16/6 7/12/6 6/17/6
f 9/1/7 2/18/7 8/19/7
f 11/20/8 12/11/8 10/21/8
f 14/22/9 15/23/9 13/24/9
f 3/25/10 17/26/10 16/10/10
f 19/27/11 20/28/11 18/3/11
f 21/29/12 22/30/12 4/31/12
f 24/2/13 5/32/13 23/33/13
f 24/2/14 19/27/14 18/3/14
f 18/3/15 2/18/15 9/1/15
f 8/15/16 1/34/16 6/13/16
f 22/35/17 23/6/17 5/36/17
f 15/9/18 11/37/18 10/7/18
f 20/38/19 17/39/19 3/40/19
f 4/31/20 10/21/20 12/11/20
f 12/11/21 6/17/21 7/12/21
f 13/24/22 5/32/22 24/2/22
f 16/10/23 21/29/23 4/31/23
f 7/12/24 3/25/24 16/10/24
f 9/1/25 14/22/25 13/24/25
f 3/41/26 2/42/26 20/43/26
f 9/1/1 13/24/1 24/2/1
f 21/4/2 17/39/2 19/5/2
f 10/7/3 22/44/3 5/8/3
f 16/10/4 4/31/4 12/11/4
f 6/13/5 11/45/5 14/14/5
f 24/2/14 23/33/14 19/27/14
f 18/3/15 20/28/15 2/18/15
f 8/15/16 2/46/16 1/34/16
f 22/35/17 21/4/17 23/6/17
f 15/9/18 14/47/18 11/37/18
f 20/38/19 19/5/19 17/39/19
f 4/31/20 22/30/20 10/21/20
f 12/11/21 11/20/21 6/17/21
f 13/24/22 15/23/22 5/32/22
f 16/10/23 17/26/23 21/29/23
f 7/12/24 1/16/24 3/25/24
f 9/1/25 8/19/25 14/22/25
f 3/41/26 1/48/26 2/42/26
